<?xml version="1.0" standalone="no"?>
<!DOCTYPE svg PUBLIC "-//W3C//DTD SVG 20010904//EN"
 "http://www.w3.org/TR/2001/REC-SVG-20010904/DTD/svg10.dtd">
<svg version="1.0" xmlns="http://www.w3.org/2000/svg"
 width="412.000000pt" height="312.000000pt" viewBox="0 0 412.000000 312.000000"
 preserveAspectRatio="xMidYMid meet">

<g transform="translate(0.000000,312.000000) scale(0.100000,-0.100000)"
fill="#000000" stroke="none">
<path d="M1312 2570 c-153 -28 -276 -93 -388 -204 -162 -162 -234 -366 -234
-664 0 -308 77 -528 240 -693 139 -139 274 -192 490 -192 193 0 334 52 455
165 78 72 110 134 110 210 0 69 -24 101 -76 101 -52 0 -69 -30 -69 -123 0 -66
-4 -86 -30 -138 -69 -136 -224 -210 -420 -199 -207 12 -343 100 -437 284 -69
134 -97 246 -113 459 -34 448 93 794 337 922 184 96 446 77 572 -41 55 -52 75
-109 73 -204 -1 -68 2 -85 19 -107 49 -62 129 -8 129 87 0 140 -134 268 -335
322 -72 20 -250 28 -323 15z"/>
<path d="M2195 2540 l-70 -6 73 -2 72 -2 -2 -827 -3 -828 -62 -3 c-35 -2 -63
-7 -63 -12 0 -6 60 -10 145 -10 90 0 145 4 145 10 0 6 -28 10 -65 10 -43 0
-67 4 -70 13 -3 6 -4 377 -3 822 l3 810 58 -90 c32 -49 177 -277 323 -505 146
-228 360 -565 477 -747 117 -183 218 -333 224 -333 10 0 13 179 15 843 l3 842
65 5 65 5 -85 6 c-47 3 -114 3 -150 -1 l-65 -7 60 -2 c33 -1 66 -5 73 -9 10
-7 12 -158 10 -722 l-3 -714 -167 260 c-92 142 -303 470 -470 729 l-303 470
-80 1 c-44 0 -111 -2 -150 -6z"/>
<path d="M690 565 c0 -63 4 -105 10 -105 6 0 10 42 10 105 0 63 -4 105 -10
105 -6 0 -10 -42 -10 -105z"/>
<path d="M882 590 c-1 -47 2 -90 6 -97 4 -6 6 23 4 65 -4 114 -9 128 -10 32z"/>
<path d="M1124 571 c22 -55 43 -98 45 -96 5 6 -72 195 -80 195 -4 0 12 -45 35
-99z"/>
<path d="M1264 565 c0 -60 1 -84 3 -52 2 32 2 81 0 110 -2 29 -3 3 -3 -58z"/>
<path d="M1328 565 c-2 -58 0 -105 5 -105 4 0 7 47 7 105 0 58 -2 105 -4 105
-3 0 -6 -47 -8 -105z"/>
<path d="M1494 565 c0 -60 1 -84 3 -52 2 32 2 81 0 110 -2 29 -3 3 -3 -58z"/>
<path d="M1660 565 c0 -63 4 -105 10 -105 6 0 10 42 10 105 0 63 -4 105 -10
105 -6 0 -10 -42 -10 -105z"/>
<path d="M1925 565 c0 -58 3 -105 8 -105 4 0 7 47 7 105 0 58 -3 105 -7 105
-5 0 -8 -47 -8 -105z"/>
<path d="M2115 565 c0 -58 3 -105 8 -105 4 0 7 47 7 105 0 58 -3 105 -7 105
-5 0 -8 -47 -8 -105z"/>
<path d="M2772 590 c-1 -47 2 -90 6 -97 4 -6 6 23 4 65 -4 114 -9 128 -10 32z"/>
<path d="M2989 653 c32 -58 121 -186 121 -176 0 12 -118 193 -126 193 -3 0 0
-8 5 -17z"/>
<path d="M3228 565 c-2 -58 0 -105 5 -105 4 0 7 47 7 105 0 58 -2 105 -4 105
-3 0 -6 -47 -8 -105z"/>
<path d="M803 632 c1 -14 5 -18 11 -12 7 7 6 14 -1 21 -9 9 -12 7 -10 -9z"/>
<path d="M1441 620 c0 -29 1 -32 10 -17 7 11 7 23 0 35 -9 14 -10 11 -10 -18z"/>
<path d="M1772 625 c0 -16 2 -22 5 -12 2 9 2 23 0 30 -3 6 -5 -1 -5 -18z"/>
<path d="M2350 620 c-16 -38 -7 -107 15 -129 16 -15 17 -14 5 8 -7 14 -11 49
-8 87 2 35 3 64 2 64 -1 0 -7 -14 -14 -30z"/>
<path d="M2552 625 c-18 -38 -15 -100 6 -122 9 -10 13 -13 8 -6 -4 7 -6 44 -4
83 2 38 3 70 2 70 0 0 -6 -11 -12 -25z"/>
<path d="M2057 593 c3 -23 0 -56 -6 -75 -9 -24 -9 -30 0 -21 16 16 23 97 11
119 -8 15 -9 10 -5 -23z"/>
<path d="M2189 612 c6 -12 33 -32 59 -44 26 -13 53 -34 59 -48 10 -19 13 -21
13 -7 0 22 -43 67 -64 67 -8 0 -29 12 -47 27 -29 25 -31 25 -20 5z"/>
<path d="M3352 615 c2 -13 22 -29 53 -45 27 -14 55 -36 62 -50 12 -23 13 -23
13 -4 0 26 -24 48 -72 69 -20 8 -42 23 -48 32 -10 17 -10 16 -8 -2z"/>
<path d="M2708 560 c-2 -36 -3 -67 -2 -69 2 -1 8 16 14 39 7 27 8 51 2 68 -8
23 -10 17 -14 -38z"/>
<path d="M819 518 c-3 -22 -1 -34 4 -29 5 5 7 21 5 37 -3 27 -4 26 -9 -8z"/>
<path d="M1765 510 c9 -16 18 -30 21 -30 2 0 -2 14 -11 30 -9 17 -18 30 -21
30 -2 0 2 -13 11 -30z"/>
<path d="M2170 511 c0 -11 4 -22 9 -25 4 -3 6 6 3 19 -5 30 -12 33 -12 6z"/>
<path d="M3335 520 c-3 -5 -1 -18 4 -27 9 -16 10 -14 11 10 0 28 -5 34 -15 17z"/>
<path d="M2491 494 c0 -11 3 -14 6 -6 3 7 2 16 -1 19 -3 4 -6 -2 -5 -13z"/>
</g>
</svg>
